<?xml version="1.0" encoding="UTF-8"?>
<svg width="956px" height="324px" viewBox="0 0 956 324" version="1.1" xmlns="http://www.w3.org/2000/svg" xmlns:xlink="http://www.w3.org/1999/xlink">
    <!-- Generator: Sketch 53 (72520) - https://sketchapp.com -->
    <title>Artboard</title>
    <desc>Created with Sketch.</desc>
    <g id="Artboard" stroke="none" stroke-width="1" fill="none" fill-rule="evenodd">
        <g id="Group-2" transform="translate(6.000000, 0.000000)">
            <text id="translangtor" font-family="Oxygen-Regular, Oxygen" font-size="140" font-weight="normal">
                <tspan x="88" y="203" fill="#666666">tran</tspan>
                <tspan x="342.228516" y="203" fill="#EAC300">slang</tspan>
                <tspan x="683.410156" y="203" fill="#666666">tor</tspan>
            </text>
            <g id="Group">
                <polygon id="Path-4" fill="#F7D345" points="659 29 671 35.75 659 42.5 650 38.5"></polygon>
                <polyline id="Path-2" stroke="#F7D345" stroke-width="12" points="332.5 287 0 287 0 36.2727273 656 35"></polyline>
                <path d="M606,6 L657,35" id="Path-3" stroke="#F7D345" stroke-width="12"></path>
                <path d="M606,37 L657,66" id="Path-3-Copy" stroke="#F7D345" stroke-width="12" transform="translate(631.500000, 51.500000) scale(1, -1) translate(-631.500000, -51.500000) "></path>
                <rect id="Rectangle" fill="#FFFFFF" x="596" y="61" width="39" height="11"></rect>
                <rect id="Rectangle-Copy" fill="#FFFFFF" x="596" y="0" width="39" height="11"></rect>
            </g>
            <g id="Group-Copy" transform="translate(645.500000, 180.500000) scale(-1, -1) translate(-645.500000, -180.500000) translate(347.000000, 37.000000)">
                <polygon id="Path-4" fill="#666666" points="585 29 597 35.75 585 42.5 576 38.5"></polygon>
                <polyline id="Path-2" stroke="#666666" stroke-width="12" points="256.5 287 -4.54747351e-13 287 -4.54747351e-13 37 579 37"></polyline>
                <path d="M532,6 L583,35" id="Path-3" stroke="#666666" stroke-width="12"></path>
                <path d="M532,37 L583,66" id="Path-3-Copy" stroke="#666666" stroke-width="12" transform="translate(557.500000, 51.500000) scale(1, -1) translate(-557.500000, -51.500000) "></path>
                <rect id="Rectangle" fill="#FFFFFF" x="522" y="61" width="39" height="11"></rect>
                <rect id="Rectangle-Copy" fill="#FFFFFF" x="522" y="0" width="39" height="11"></rect>
            </g>
        </g>
    </g>
</svg>